<svg xmlns="http://www.w3.org/2000/svg" width="600" height="900" viewBox="0 0 600 900" font-family="Georgia, 'Times New Roman', serif">
<defs>
  <linearGradient id="g" x1="0.2" y1="0" x2="0.8" y2="1"><stop offset="0" stop-color="#16294A"/><stop offset="1" stop-color="#060C18"/></linearGradient>
  <radialGradient id="glow" cx="0.5" cy="0.62" r="0.55"><stop offset="0" stop-color="#6E94E6" stop-opacity="0.30"/><stop offset="1" stop-color="#6E94E6" stop-opacity="0"/></radialGradient>
  <linearGradient id="vig" x1="0" y1="0" x2="0" y2="1"><stop offset="0" stop-color="#000" stop-opacity="0.0"/><stop offset="0.78" stop-color="#000" stop-opacity="0.0"/><stop offset="1" stop-color="#000" stop-opacity="0.55"/></linearGradient>
</defs>
<rect width="600" height="900" fill="url(#g)"/>
<rect width="600" height="900" fill="url(#glow)"/>
<line x1="180" y1="400" x2="180" y2="620" stroke="#6E94E6" stroke-width="1.5" opacity="0.2"/>
<line x1="240" y1="400" x2="240" y2="620" stroke="#6E94E6" stroke-width="1.5" opacity="0.2"/>
<line x1="300" y1="400" x2="300" y2="620" stroke="#6E94E6" stroke-width="1.5" opacity="0.2"/>
<line x1="360" y1="400" x2="360" y2="620" stroke="#6E94E6" stroke-width="1.5" opacity="0.2"/>
<line x1="420" y1="400" x2="420" y2="620" stroke="#6E94E6" stroke-width="1.5" opacity="0.2"/>
<line x1="180" y1="400" x2="420" y2="400" stroke="#6E94E6" stroke-width="1.5" opacity="0.2"/>
<line x1="180" y1="455" x2="420" y2="455" stroke="#6E94E6" stroke-width="1.5" opacity="0.2"/>
<line x1="180" y1="510" x2="420" y2="510" stroke="#6E94E6" stroke-width="1.5" opacity="0.2"/>
<line x1="180" y1="565" x2="420" y2="565" stroke="#6E94E6" stroke-width="1.5" opacity="0.2"/>
<line x1="180" y1="620" x2="420" y2="620" stroke="#6E94E6" stroke-width="1.5" opacity="0.2"/>
<rect x="240" y="455" width="120" height="110" rx="8" fill="#A8C0FF" opacity="0.85"/>
<rect x="240" y="455" width="120" height="110" rx="8" fill="none" stroke="#A8C0FF" stroke-width="2"/>
<rect width="600" height="900" fill="url(#vig)"/>
<rect x="28" y="28" width="544" height="844" rx="12" fill="none" stroke="#A8C0FF" stroke-width="1.5" opacity="0.35"/>
<text x="300" y="116" fill="#A8C0FF" font-size="17" letter-spacing="6" text-anchor="middle" font-family="Arial, sans-serif" opacity="0.9">NON-FICTION</text>
<text x="300" y="228" fill="#ffffff" font-size="50" font-weight="bold" text-anchor="middle" style="paint-order:stroke"><tspan x="300" dy="0">Breaking the</tspan><tspan x="300" dy="56">Chain</tspan></text>
<rect x="262" y="324" width="76" height="3" rx="1.5" fill="#A8C0FF" opacity="0.9"/>
<text x="300" y="812" fill="#ffffff" font-size="25" text-anchor="middle" opacity="0.82" font-family="Arial, sans-serif">Sofia Rossi</text>
<text x="300" y="852" fill="#A8C0FF" font-size="13" letter-spacing="5" text-anchor="middle" font-family="Arial, sans-serif" font-weight="bold" opacity="0.75">WANKONG BOOKS</text>
</svg>