<svg xmlns="http://www.w3.org/2000/svg" width="600" height="900" viewBox="0 0 600 900" font-family="Georgia, 'Times New Roman', serif">
<defs>
  <linearGradient id="g" x1="0.2" y1="0" x2="0.8" y2="1"><stop offset="0" stop-color="#3A0E1A"/><stop offset="1" stop-color="#120308"/></linearGradient>
  <radialGradient id="glow" cx="0.5" cy="0.62" r="0.55"><stop offset="0" stop-color="#FF4D6D" stop-opacity="0.30"/><stop offset="1" stop-color="#FF4D6D" stop-opacity="0"/></radialGradient>
  <linearGradient id="vig" x1="0" y1="0" x2="0" y2="1"><stop offset="0" stop-color="#000" stop-opacity="0.0"/><stop offset="0.78" stop-color="#000" stop-opacity="0.0"/><stop offset="1" stop-color="#000" stop-opacity="0.55"/></linearGradient>
</defs>
<rect width="600" height="900" fill="url(#g)"/>
<rect width="600" height="900" fill="url(#glow)"/>
<polygon points="120,640 240,440 330,560 600,300 600,640" fill="#FF4D6D" opacity="0.30"/>
<polygon points="0,640 180,500 300,580 430,430 600,560 600,640" fill="#FF8FA3" opacity="0.45"/>
<polygon points="0,640 140,560 280,610 420,540 600,620 600,640" fill="#FF4D6D" opacity="0.7"/>
<rect width="600" height="900" fill="url(#vig)"/>
<rect x="28" y="28" width="544" height="844" rx="12" fill="none" stroke="#FF8FA3" stroke-width="1.5" opacity="0.35"/>
<text x="300" y="116" fill="#FF8FA3" font-size="17" letter-spacing="6" text-anchor="middle" font-family="Arial, sans-serif" opacity="0.9">THRILLER</text>
<text x="300" y="228" fill="#ffffff" font-size="60" font-weight="bold" text-anchor="middle" style="paint-order:stroke"><tspan x="300" dy="0">Midnight in</tspan><tspan x="300" dy="66">Tokyo</tspan></text>
<rect x="262" y="334" width="76" height="3" rx="1.5" fill="#FF8FA3" opacity="0.9"/>
<text x="300" y="812" fill="#ffffff" font-size="25" text-anchor="middle" opacity="0.82" font-family="Arial, sans-serif">Kenji Nakamura</text>
<text x="300" y="852" fill="#FF8FA3" font-size="13" letter-spacing="5" text-anchor="middle" font-family="Arial, sans-serif" font-weight="bold" opacity="0.75">WANKONG BOOKS</text>
</svg>