<svg xmlns="http://www.w3.org/2000/svg" width="600" height="900" viewBox="0 0 600 900" font-family="Georgia, 'Times New Roman', serif">
<defs>
  <linearGradient id="g" x1="0.2" y1="0" x2="0.8" y2="1"><stop offset="0" stop-color="#2E0E3E"/><stop offset="1" stop-color="#0C0414"/></linearGradient>
  <radialGradient id="glow" cx="0.5" cy="0.62" r="0.55"><stop offset="0" stop-color="#B57BE8" stop-opacity="0.30"/><stop offset="1" stop-color="#B57BE8" stop-opacity="0"/></radialGradient>
  <linearGradient id="vig" x1="0" y1="0" x2="0" y2="1"><stop offset="0" stop-color="#000" stop-opacity="0.0"/><stop offset="0.78" stop-color="#000" stop-opacity="0.0"/><stop offset="1" stop-color="#000" stop-opacity="0.55"/></linearGradient>
</defs>
<rect width="600" height="900" fill="url(#g)"/>
<rect width="600" height="900" fill="url(#glow)"/>
<path d="M0 430 C 150 390, 300 470, 450 400 S 600 450, 600 430 L600 760 L0 760 Z" fill="#B57BE8" opacity="0.1"/>
<path d="M0 476 C 150 436, 300 516, 450 446 S 600 496, 600 476 L600 760 L0 760 Z" fill="#B57BE8" opacity="0.16"/>
<path d="M0 522 C 150 482, 300 562, 450 492 S 600 542, 600 522 L600 760 L0 760 Z" fill="#B57BE8" opacity="0.26"/>
<path d="M0 568 C 150 528, 300 608, 450 538 S 600 588, 600 568 L600 760 L0 760 Z" fill="#D9B8F5" opacity="0.5"/>
<rect width="600" height="900" fill="url(#vig)"/>
<rect x="28" y="28" width="544" height="844" rx="12" fill="none" stroke="#D9B8F5" stroke-width="1.5" opacity="0.35"/>
<text x="300" y="116" fill="#D9B8F5" font-size="17" letter-spacing="6" text-anchor="middle" font-family="Arial, sans-serif" opacity="0.9">POETRY</text>
<text x="300" y="228" fill="#ffffff" font-size="50" font-weight="bold" text-anchor="middle" style="paint-order:stroke"><tspan x="300" dy="0">World Poetry</tspan><tspan x="300" dy="56">Anthology</tspan></text>
<rect x="262" y="324" width="76" height="3" rx="1.5" fill="#D9B8F5" opacity="0.9"/>
<text x="300" y="812" fill="#ffffff" font-size="25" text-anchor="middle" opacity="0.82" font-family="Arial, sans-serif">Various Authors</text>
<text x="300" y="852" fill="#D9B8F5" font-size="13" letter-spacing="5" text-anchor="middle" font-family="Arial, sans-serif" font-weight="bold" opacity="0.75">WANKONG BOOKS</text>
</svg>