<svg xmlns="http://www.w3.org/2000/svg" width="600" height="900" viewBox="0 0 600 900" font-family="Georgia, 'Times New Roman', serif">
<defs>
  <linearGradient id="g" x1="0.2" y1="0" x2="0.8" y2="1"><stop offset="0" stop-color="#10204A"/><stop offset="1" stop-color="#040A1A"/></linearGradient>
  <radialGradient id="glow" cx="0.5" cy="0.62" r="0.55"><stop offset="0" stop-color="#5B8CFF" stop-opacity="0.30"/><stop offset="1" stop-color="#5B8CFF" stop-opacity="0"/></radialGradient>
  <linearGradient id="vig" x1="0" y1="0" x2="0" y2="1"><stop offset="0" stop-color="#000" stop-opacity="0.0"/><stop offset="0.78" stop-color="#000" stop-opacity="0.0"/><stop offset="1" stop-color="#000" stop-opacity="0.55"/></linearGradient>
</defs>
<rect width="600" height="900" fill="url(#g)"/>
<rect width="600" height="900" fill="url(#glow)"/>
<circle cx="300" cy="500" r="168" fill="none" stroke="#5B8CFF" stroke-width="2" opacity="0.14"/>
<circle cx="300" cy="500" r="124" fill="none" stroke="#5B8CFF" stroke-width="2" opacity="0.2"/>
<circle cx="300" cy="500" r="80" fill="none" stroke="#5B8CFF" stroke-width="2" opacity="0.3"/>
<circle cx="372" cy="438" r="20" fill="#9DB8FF" opacity="0.9"/>
<circle cx="300" cy="500" r="40" fill="#5B8CFF" opacity="0.25"/>
<circle cx="250" cy="560" r="4" fill="#9DB8FF" opacity="0.8"/>
<circle cx="360" cy="540" r="3" fill="#9DB8FF" opacity="0.7"/>
<circle cx="230" cy="470" r="3" fill="#9DB8FF" opacity="0.6"/>
<circle cx="330" cy="430" r="5" fill="#9DB8FF" opacity="0.8"/>
<rect width="600" height="900" fill="url(#vig)"/>
<rect x="28" y="28" width="544" height="844" rx="12" fill="none" stroke="#9DB8FF" stroke-width="1.5" opacity="0.35"/>
<text x="300" y="116" fill="#9DB8FF" font-size="17" letter-spacing="6" text-anchor="middle" font-family="Arial, sans-serif" opacity="0.9">SCI-FI</text>
<text x="300" y="228" fill="#ffffff" font-size="60" font-weight="bold" text-anchor="middle" style="paint-order:stroke"><tspan x="300" dy="0">The Quantum</tspan><tspan x="300" dy="66">Garden</tspan></text>
<rect x="262" y="334" width="76" height="3" rx="1.5" fill="#9DB8FF" opacity="0.9"/>
<text x="300" y="812" fill="#ffffff" font-size="25" text-anchor="middle" opacity="0.82" font-family="Arial, sans-serif">Aisha Rahman</text>
<text x="300" y="852" fill="#9DB8FF" font-size="13" letter-spacing="5" text-anchor="middle" font-family="Arial, sans-serif" font-weight="bold" opacity="0.75">WANKONG BOOKS</text>
</svg>