<svg xmlns="http://www.w3.org/2000/svg" width="600" height="900" viewBox="0 0 600 900" font-family="Georgia, 'Times New Roman', serif">
<defs>
  <linearGradient id="g" x1="0.2" y1="0" x2="0.8" y2="1"><stop offset="0" stop-color="#3A2F08"/><stop offset="1" stop-color="#0E0B02"/></linearGradient>
  <radialGradient id="glow" cx="0.5" cy="0.62" r="0.55"><stop offset="0" stop-color="#F5C542" stop-opacity="0.30"/><stop offset="1" stop-color="#F5C542" stop-opacity="0"/></radialGradient>
  <linearGradient id="vig" x1="0" y1="0" x2="0" y2="1"><stop offset="0" stop-color="#000" stop-opacity="0.0"/><stop offset="0.78" stop-color="#000" stop-opacity="0.0"/><stop offset="1" stop-color="#000" stop-opacity="0.55"/></linearGradient>
</defs>
<rect width="600" height="900" fill="url(#g)"/>
<rect width="600" height="900" fill="url(#glow)"/>
<rect x="200" y="520" width="44" height="120" rx="6" fill="#F5C542" opacity="0.35"/>
<rect x="264" y="450" width="44" height="190" rx="6" fill="#F5C542" opacity="0.43"/>
<rect x="328" y="490" width="44" height="150" rx="6" fill="#F5C542" opacity="0.51"/>
<rect x="392" y="390" width="44" height="250" rx="6" fill="#FFE08A" opacity="0.85"/>
<path d="M210 540 L286 470 L350 510 L430 410" fill="none" stroke="#FFE08A" stroke-width="4" opacity="0.9" stroke-linecap="round" stroke-linejoin="round"/>
<circle cx="430" cy="410" r="7" fill="#FFE08A"/>
<rect width="600" height="900" fill="url(#vig)"/>
<rect x="28" y="28" width="544" height="844" rx="12" fill="none" stroke="#FFE08A" stroke-width="1.5" opacity="0.35"/>
<text x="300" y="116" fill="#FFE08A" font-size="17" letter-spacing="6" text-anchor="middle" font-family="Arial, sans-serif" opacity="0.9">BUSINESS</text>
<text x="300" y="228" fill="#ffffff" font-size="60" font-weight="bold" text-anchor="middle" style="paint-order:stroke"><tspan x="300" dy="0">The Startup</tspan><tspan x="300" dy="66">Diaries</tspan></text>
<rect x="262" y="334" width="76" height="3" rx="1.5" fill="#FFE08A" opacity="0.9"/>
<text x="300" y="812" fill="#ffffff" font-size="25" text-anchor="middle" opacity="0.82" font-family="Arial, sans-serif">Lucas Bennett</text>
<text x="300" y="852" fill="#FFE08A" font-size="13" letter-spacing="5" text-anchor="middle" font-family="Arial, sans-serif" font-weight="bold" opacity="0.75">WANKONG BOOKS</text>
</svg>