<svg xmlns="http://www.w3.org/2000/svg" viewBox="0 0 416 208" width="416" height="208"><circle cx="313.5" cy="16.8" r="1.5" fill="#9D6BFF"/><circle cx="318.1" cy="16.8" r="1.5" fill="#34E1FF"/><circle cx="322.7" cy="16.8" r="1.5" fill="#34E1FF"/><circle cx="327.3" cy="16.8" r="1.5" fill="#9D6BFF"/><circle cx="331.9" cy="16.8" r="1.5" fill="#34E1FF"/><circle cx="336.5" cy="16.8" r="1.5" fill="#34E1FF"/><circle cx="67.4" cy="21.4" r="1.5" fill="#9D6BFF"/><circle cx="72.0" cy="21.4" r="1.5" fill="#34E1FF"/><circle cx="76.6" cy="21.4" r="1.5" fill="#34E1FF"/><circle cx="81.2" cy="21.4" r="1.5" fill="#34E1FF"/><circle cx="85.8" cy="21.4" r="1.5" fill="#9D6BFF"/><circle cx="90.4" cy="21.4" r="1.5" fill="#34E1FF"/><circle cx="95.0" cy="21.4" r="1.5" fill="#34E1FF"/><circle cx="297.4" cy="21.4" r="1.5" fill="#9D6BFF"/><circle cx="302.0" cy="21.4" r="1.5" fill="#34E1FF"/><circle cx="306.6" cy="21.4" r="1.5" fill="#34E1FF"/><circle cx="311.2" cy="21.4" r="1.5" fill="#9D6BFF"/><circle cx="315.8" cy="21.4" r="1.5" fill="#34E1FF"/><circle cx="320.4" cy="21.4" r="1.5" fill="#34E1FF"/><circle cx="325.0" cy="21.4" r="1.5" fill="#34E1FF"/><circle cx="329.6" cy="21.4" r="1.5" fill="#9D6BFF"/><circle cx="334.2" cy="21.4" r="1.5" fill="#34E1FF"/><circle cx="338.8" cy="21.4" r="1.5" fill="#34E1FF"/><circle cx="343.4" cy="21.4" r="1.5" fill="#9D6BFF"/><circle cx="348.0" cy="21.4" r="1.5" fill="#34E1FF"/><circle cx="352.6" cy="21.4" r="1.5" fill="#34E1FF"/><circle cx="357.2" cy="21.4" r="1.5" fill="#9D6BFF"/><circle cx="361.8" cy="21.4" r="1.5" fill="#34E1FF"/><circle cx="366.4" cy="21.4" r="1.5" fill="#34E1FF"/><circle cx="371.0" cy="21.4" r="1.5" fill="#34E1FF"/><circle cx="375.6" cy="21.4" r="1.5" fill="#9D6BFF"/><circle cx="23.7" cy="26.0" r="1.5" fill="#34E1FF"/><circle cx="28.3" cy="26.0" r="1.5" fill="#34E1FF"/><circle cx="32.9" cy="26.0" r="1.5" fill="#9D6BFF"/><circle cx="37.5" cy="26.0" r="1.5" fill="#34E1FF"/><circle cx="42.1" cy="26.0" r="1.5" fill="#34E1FF"/><circle cx="46.7" cy="26.0" r="1.5" fill="#9D6BFF"/><circle cx="51.3" cy="26.0" r="1.5" fill="#34E1FF"/><circle cx="55.9" cy="26.0" r="1.5" fill="#34E1FF"/><circle cx="60.5" cy="26.0" r="1.5" fill="#34E1FF"/><circle cx="65.1" cy="26.0" r="1.5" fill="#9D6BFF"/><circle cx="69.7" cy="26.0" r="1.5" fill="#34E1FF"/><circle cx="74.3" cy="26.0" r="1.5" fill="#34E1FF"/><circle cx="78.9" cy="26.0" r="1.5" fill="#9D6BFF"/><circle cx="83.5" cy="26.0" r="1.5" fill="#34E1FF"/><circle cx="88.1" cy="26.0" r="1.5" fill="#34E1FF"/><circle cx="92.7" cy="26.0" r="1.5" fill="#9D6BFF"/><circle cx="97.3" cy="26.0" r="1.5" fill="#34E1FF"/><circle cx="101.9" cy="26.0" r="1.5" fill="#34E1FF"/><circle cx="285.9" cy="26.0" r="1.5" fill="#34E1FF"/><circle cx="290.5" cy="26.0" r="1.5" fill="#9D6BFF"/><circle cx="295.1" cy="26.0" r="1.5" fill="#34E1FF"/><circle cx="299.7" cy="26.0" r="1.5" fill="#34E1FF"/><circle cx="304.3" cy="26.0" r="1.5" fill="#9D6BFF"/><circle cx="308.9" cy="26.0" r="1.5" fill="#34E1FF"/><circle cx="313.5" cy="26.0" r="1.5" fill="#34E1FF"/><circle cx="318.1" cy="26.0" r="1.5" fill="#9D6BFF"/><circle cx="322.7" cy="26.0" r="1.5" fill="#34E1FF"/><circle cx="327.3" cy="26.0" r="1.5" fill="#34E1FF"/><circle cx="331.9" cy="26.0" r="1.5" fill="#34E1FF"/><circle cx="336.5" cy="26.0" r="1.5" fill="#9D6BFF"/><circle cx="341.1" cy="26.0" r="1.5" fill="#34E1FF"/><circle cx="345.7" cy="26.0" r="1.5" fill="#34E1FF"/><circle cx="350.3" cy="26.0" r="1.5" fill="#9D6BFF"/><circle cx="354.9" cy="26.0" r="1.5" fill="#34E1FF"/><circle cx="359.5" cy="26.0" r="1.5" fill="#34E1FF"/><circle cx="364.1" cy="26.0" r="1.5" fill="#9D6BFF"/><circle cx="368.7" cy="26.0" r="1.5" fill="#34E1FF"/><circle cx="373.3" cy="26.0" r="1.5" fill="#34E1FF"/><circle cx="377.9" cy="26.0" r="1.5" fill="#34E1FF"/><circle cx="382.5" cy="26.0" r="1.5" fill="#9D6BFF"/><circle cx="387.1" cy="26.0" r="1.5" fill="#34E1FF"/><circle cx="391.7" cy="26.0" r="1.5" fill="#34E1FF"/><circle cx="396.3" cy="26.0" r="1.5" fill="#9D6BFF"/><circle cx="400.9" cy="26.0" r="1.5" fill="#34E1FF"/><circle cx="405.5" cy="26.0" r="1.5" fill="#34E1FF"/><circle cx="21.4" cy="30.6" r="1.5" fill="#9D6BFF"/><circle cx="26.0" cy="30.6" r="1.5" fill="#34E1FF"/><circle cx="30.6" cy="30.6" r="1.5" fill="#34E1FF"/><circle cx="35.2" cy="30.6" r="1.5" fill="#34E1FF"/><circle cx="39.8" cy="30.6" r="1.5" fill="#9D6BFF"/><circle cx="44.4" cy="30.6" r="1.5" fill="#34E1FF"/><circle cx="49.0" cy="30.6" r="1.5" fill="#34E1FF"/><circle cx="53.6" cy="30.6" r="1.5" fill="#9D6BFF"/><circle cx="58.2" cy="30.6" r="1.5" fill="#34E1FF"/><circle cx="62.8" cy="30.6" r="1.5" fill="#34E1FF"/><circle cx="67.4" cy="30.6" r="1.5" fill="#9D6BFF"/><circle cx="72.0" cy="30.6" r="1.5" fill="#34E1FF"/><circle cx="76.6" cy="30.6" r="1.5" fill="#34E1FF"/><circle cx="81.2" cy="30.6" r="1.5" fill="#34E1FF"/><circle cx="85.8" cy="30.6" r="1.5" fill="#9D6BFF"/><circle cx="90.4" cy="30.6" r="1.5" fill="#34E1FF"/><circle cx="95.0" cy="30.6" r="1.5" fill="#34E1FF"/><circle cx="99.6" cy="30.6" r="1.5" fill="#9D6BFF"/><circle cx="104.2" cy="30.6" r="1.5" fill="#34E1FF"/><circle cx="108.8" cy="30.6" r="1.5" fill="#34E1FF"/><circle cx="283.6" cy="30.6" r="1.5" fill="#9D6BFF"/><circle cx="288.2" cy="30.6" r="1.5" fill="#34E1FF"/><circle cx="292.8" cy="30.6" r="1.5" fill="#34E1FF"/><circle cx="297.4" cy="30.6" r="1.5" fill="#34E1FF"/><circle cx="302.0" cy="30.6" r="1.5" fill="#9D6BFF"/><circle cx="306.6" cy="30.6" r="1.5" fill="#34E1FF"/><circle cx="311.2" cy="30.6" r="1.5" fill="#34E1FF"/><circle cx="315.8" cy="30.6" r="1.5" fill="#9D6BFF"/><circle cx="320.4" cy="30.6" r="1.5" fill="#34E1FF"/><circle cx="325.0" cy="30.6" r="1.5" fill="#34E1FF"/><circle cx="329.6" cy="30.6" r="1.5" fill="#9D6BFF"/><circle cx="334.2" cy="30.6" r="1.5" fill="#34E1FF"/><circle cx="338.8" cy="30.6" r="1.5" fill="#34E1FF"/><circle cx="343.4" cy="30.6" r="1.5" fill="#34E1FF"/><circle cx="348.0" cy="30.6" r="1.5" fill="#9D6BFF"/><circle cx="352.6" cy="30.6" r="1.5" fill="#34E1FF"/><circle cx="357.2" cy="30.6" r="1.5" fill="#34E1FF"/><circle cx="361.8" cy="30.6" r="1.5" fill="#9D6BFF"/><circle cx="366.4" cy="30.6" r="1.5" fill="#34E1FF"/><circle cx="371.0" cy="30.6" r="1.5" fill="#34E1FF"/><circle cx="375.6" cy="30.6" r="1.5" fill="#9D6BFF"/><circle cx="380.2" cy="30.6" r="1.5" fill="#34E1FF"/><circle cx="384.8" cy="30.6" r="1.5" fill="#34E1FF"/><circle cx="389.4" cy="30.6" r="1.5" fill="#34E1FF"/><circle cx="394.0" cy="30.6" r="1.5" fill="#9D6BFF"/><circle cx="398.6" cy="30.6" r="1.5" fill="#34E1FF"/><circle cx="403.2" cy="30.6" r="1.5" fill="#34E1FF"/><circle cx="42.1" cy="35.2" r="1.5" fill="#9D6BFF"/><circle cx="46.7" cy="35.2" r="1.5" fill="#34E1FF"/><circle cx="51.3" cy="35.2" r="1.5" fill="#34E1FF"/><circle cx="55.9" cy="35.2" r="1.5" fill="#9D6BFF"/><circle cx="60.5" cy="35.2" r="1.5" fill="#34E1FF"/><circle cx="65.1" cy="35.2" r="1.5" fill="#34E1FF"/><circle cx="69.7" cy="35.2" r="1.5" fill="#34E1FF"/><circle cx="74.3" cy="35.2" r="1.5" fill="#9D6BFF"/><circle cx="78.9" cy="35.2" r="1.5" fill="#34E1FF"/><circle cx="83.5" cy="35.2" r="1.5" fill="#34E1FF"/><circle cx="88.1" cy="35.2" r="1.5" fill="#9D6BFF"/><circle cx="92.7" cy="35.2" r="1.5" fill="#34E1FF"/><circle cx="97.3" cy="35.2" r="1.5" fill="#34E1FF"/><circle cx="101.9" cy="35.2" r="1.5" fill="#9D6BFF"/><circle cx="106.5" cy="35.2" r="1.5" fill="#34E1FF"/><circle cx="111.1" cy="35.2" r="1.5" fill="#34E1FF"/><circle cx="115.7" cy="35.2" r="1.5" fill="#34E1FF"/><circle cx="120.3" cy="35.2" r="1.5" fill="#9D6BFF"/><circle cx="124.9" cy="35.2" r="1.5" fill="#34E1FF"/><circle cx="129.5" cy="35.2" r="1.5" fill="#34E1FF"/><circle cx="134.1" cy="35.2" r="1.5" fill="#9D6BFF"/><circle cx="235.3" cy="35.2" r="1.5" fill="#34E1FF"/><circle cx="239.9" cy="35.2" r="1.5" fill="#34E1FF"/><circle cx="244.5" cy="35.2" r="1.5" fill="#9D6BFF"/><circle cx="249.1" cy="35.2" r="1.5" fill="#34E1FF"/><circle cx="253.7" cy="35.2" r="1.5" fill="#34E1FF"/><circle cx="276.7" cy="35.2" r="1.5" fill="#34E1FF"/><circle cx="281.3" cy="35.2" r="1.5" fill="#9D6BFF"/><circle cx="285.9" cy="35.2" r="1.5" fill="#34E1FF"/><circle cx="290.5" cy="35.2" r="1.5" fill="#34E1FF"/><circle cx="295.1" cy="35.2" r="1.5" fill="#9D6BFF"/><circle cx="299.7" cy="35.2" r="1.5" fill="#34E1FF"/><circle cx="304.3" cy="35.2" r="1.5" fill="#34E1FF"/><circle cx="308.9" cy="35.2" r="1.5" fill="#9D6BFF"/><circle cx="313.5" cy="35.2" r="1.5" fill="#34E1FF"/><circle cx="318.1" cy="35.2" r="1.5" fill="#34E1FF"/><circle cx="322.7" cy="35.2" r="1.5" fill="#34E1FF"/><circle cx="327.3" cy="35.2" r="1.5" fill="#9D6BFF"/><circle cx="331.9" cy="35.2" r="1.5" fill="#34E1FF"/><circle cx="336.5" cy="35.2" r="1.5" fill="#34E1FF"/><circle cx="341.1" cy="35.2" r="1.5" fill="#9D6BFF"/><circle cx="345.7" cy="35.2" r="1.5" fill="#34E1FF"/><circle cx="350.3" cy="35.2" r="1.5" fill="#34E1FF"/><circle cx="354.9" cy="35.2" r="1.5" fill="#9D6BFF"/><circle cx="359.5" cy="35.2" r="1.5" fill="#34E1FF"/><circle cx="364.1" cy="35.2" r="1.5" fill="#34E1FF"/><circle cx="368.7" cy="35.2" r="1.5" fill="#34E1FF"/><circle cx="373.3" cy="35.2" r="1.5" fill="#9D6BFF"/><circle cx="377.9" cy="35.2" r="1.5" fill="#34E1FF"/><circle cx="382.5" cy="35.2" r="1.5" fill="#34E1FF"/><circle cx="387.1" cy="35.2" r="1.5" fill="#9D6BFF"/><circle cx="391.7" cy="35.2" r="1.5" fill="#34E1FF"/><circle cx="53.6" cy="39.8" r="1.5" fill="#34E1FF"/><circle cx="58.2" cy="39.8" r="1.5" fill="#9D6BFF"/><circle cx="62.8" cy="39.8" r="1.5" fill="#34E1FF"/><circle cx="67.4" cy="39.8" r="1.5" fill="#34E1FF"/><circle cx="72.0" cy="39.8" r="1.5" fill="#34E1FF"/><circle cx="76.6" cy="39.8" r="1.5" fill="#9D6BFF"/><circle cx="81.2" cy="39.8" r="1.5" fill="#34E1FF"/><circle cx="85.8" cy="39.8" r="1.5" fill="#34E1FF"/><circle cx="90.4" cy="39.8" r="1.5" fill="#9D6BFF"/><circle cx="95.0" cy="39.8" r="1.5" fill="#34E1FF"/><circle cx="99.6" cy="39.8" r="1.5" fill="#34E1FF"/><circle cx="104.2" cy="39.8" r="1.5" fill="#9D6BFF"/><circle cx="108.8" cy="39.8" r="1.5" fill="#34E1FF"/><circle cx="113.4" cy="39.8" r="1.5" fill="#34E1FF"/><circle cx="118.0" cy="39.8" r="1.5" fill="#34E1FF"/><circle cx="122.6" cy="39.8" r="1.5" fill="#9D6BFF"/><circle cx="127.2" cy="39.8" r="1.5" fill="#34E1FF"/><circle cx="131.8" cy="39.8" r="1.5" fill="#34E1FF"/><circle cx="136.4" cy="39.8" r="1.5" fill="#9D6BFF"/><circle cx="205.4" cy="39.8" r="1.5" fill="#34E1FF"/><circle cx="219.2" cy="39.8" r="1.5" fill="#34E1FF"/><circle cx="223.8" cy="39.8" r="1.5" fill="#9D6BFF"/><circle cx="228.4" cy="39.8" r="1.5" fill="#34E1FF"/><circle cx="233.0" cy="39.8" r="1.5" fill="#34E1FF"/><circle cx="237.6" cy="39.8" r="1.5" fill="#34E1FF"/><circle cx="242.2" cy="39.8" r="1.5" fill="#9D6BFF"/><circle cx="246.8" cy="39.8" r="1.5" fill="#34E1FF"/><circle cx="251.4" cy="39.8" r="1.5" fill="#34E1FF"/><circle cx="274.4" cy="39.8" r="1.5" fill="#9D6BFF"/><circle cx="279.0" cy="39.8" r="1.5" fill="#34E1FF"/><circle cx="283.6" cy="39.8" r="1.5" fill="#34E1FF"/><circle cx="288.2" cy="39.8" r="1.5" fill="#9D6BFF"/><circle cx="292.8" cy="39.8" r="1.5" fill="#34E1FF"/><circle cx="297.4" cy="39.8" r="1.5" fill="#34E1FF"/><circle cx="302.0" cy="39.8" r="1.5" fill="#34E1FF"/><circle cx="306.6" cy="39.8" r="1.5" fill="#9D6BFF"/><circle cx="311.2" cy="39.8" r="1.5" fill="#34E1FF"/><circle cx="315.8" cy="39.8" r="1.5" fill="#34E1FF"/><circle cx="320.4" cy="39.8" r="1.5" fill="#9D6BFF"/><circle cx="325.0" cy="39.8" r="1.5" fill="#34E1FF"/><circle cx="329.6" cy="39.8" r="1.5" fill="#34E1FF"/><circle cx="334.2" cy="39.8" r="1.5" fill="#9D6BFF"/><circle cx="338.8" cy="39.8" r="1.5" fill="#34E1FF"/><circle cx="343.4" cy="39.8" r="1.5" fill="#34E1FF"/><circle cx="348.0" cy="39.8" r="1.5" fill="#34E1FF"/><circle cx="352.6" cy="39.8" r="1.5" fill="#9D6BFF"/><circle cx="357.2" cy="39.8" r="1.5" fill="#34E1FF"/><circle cx="361.8" cy="39.8" r="1.5" fill="#34E1FF"/><circle cx="366.4" cy="39.8" r="1.5" fill="#9D6BFF"/><circle cx="371.0" cy="39.8" r="1.5" fill="#34E1FF"/><circle cx="375.6" cy="39.8" r="1.5" fill="#34E1FF"/><circle cx="380.2" cy="39.8" r="1.5" fill="#9D6BFF"/><circle cx="384.8" cy="39.8" r="1.5" fill="#34E1FF"/><circle cx="60.5" cy="44.4" r="1.5" fill="#34E1FF"/><circle cx="65.1" cy="44.4" r="1.5" fill="#34E1FF"/><circle cx="69.7" cy="44.4" r="1.5" fill="#9D6BFF"/><circle cx="74.3" cy="44.4" r="1.5" fill="#34E1FF"/><circle cx="78.9" cy="44.4" r="1.5" fill="#34E1FF"/><circle cx="83.5" cy="44.4" r="1.5" fill="#9D6BFF"/><circle cx="88.1" cy="44.4" r="1.5" fill="#34E1FF"/><circle cx="92.7" cy="44.4" r="1.5" fill="#34E1FF"/><circle cx="97.3" cy="44.4" r="1.5" fill="#9D6BFF"/><circle cx="101.9" cy="44.4" r="1.5" fill="#34E1FF"/><circle cx="106.5" cy="44.4" r="1.5" fill="#34E1FF"/><circle cx="111.1" cy="44.4" r="1.5" fill="#34E1FF"/><circle cx="115.7" cy="44.4" r="1.5" fill="#9D6BFF"/><circle cx="120.3" cy="44.4" r="1.5" fill="#34E1FF"/><circle cx="124.9" cy="44.4" r="1.5" fill="#34E1FF"/><circle cx="129.5" cy="44.4" r="1.5" fill="#9D6BFF"/><circle cx="134.1" cy="44.4" r="1.5" fill="#34E1FF"/><circle cx="138.7" cy="44.4" r="1.5" fill="#34E1FF"/><circle cx="203.1" cy="44.4" r="1.5" fill="#9D6BFF"/><circle cx="212.3" cy="44.4" r="1.5" fill="#34E1FF"/><circle cx="216.9" cy="44.4" r="1.5" fill="#34E1FF"/><circle cx="221.5" cy="44.4" r="1.5" fill="#34E1FF"/><circle cx="226.1" cy="44.4" r="1.5" fill="#9D6BFF"/><circle cx="230.7" cy="44.4" r="1.5" fill="#34E1FF"/><circle cx="235.3" cy="44.4" r="1.5" fill="#34E1FF"/><circle cx="239.9" cy="44.4" r="1.5" fill="#9D6BFF"/><circle cx="244.5" cy="44.4" r="1.5" fill="#34E1FF"/><circle cx="249.1" cy="44.4" r="1.5" fill="#34E1FF"/><circle cx="253.7" cy="44.4" r="1.5" fill="#9D6BFF"/><circle cx="276.7" cy="44.4" r="1.5" fill="#34E1FF"/><circle cx="281.3" cy="44.4" r="1.5" fill="#34E1FF"/><circle cx="285.9" cy="44.4" r="1.5" fill="#34E1FF"/><circle cx="290.5" cy="44.4" r="1.5" fill="#9D6BFF"/><circle cx="295.1" cy="44.4" r="1.5" fill="#34E1FF"/><circle cx="299.7" cy="44.4" r="1.5" fill="#34E1FF"/><circle cx="304.3" cy="44.4" r="1.5" fill="#9D6BFF"/><circle cx="308.9" cy="44.4" r="1.5" fill="#34E1FF"/><circle cx="313.5" cy="44.4" r="1.5" fill="#34E1FF"/><circle cx="318.1" cy="44.4" r="1.5" fill="#9D6BFF"/><circle cx="322.7" cy="44.4" r="1.5" fill="#34E1FF"/><circle cx="327.3" cy="44.4" r="1.5" fill="#34E1FF"/><circle cx="331.9" cy="44.4" r="1.5" fill="#34E1FF"/><circle cx="336.5" cy="44.4" r="1.5" fill="#9D6BFF"/><circle cx="341.1" cy="44.4" r="1.5" fill="#34E1FF"/><circle cx="345.7" cy="44.4" r="1.5" fill="#34E1FF"/><circle cx="350.3" cy="44.4" r="1.5" fill="#9D6BFF"/><circle cx="354.9" cy="44.4" r="1.5" fill="#34E1FF"/><circle cx="359.5" cy="44.4" r="1.5" fill="#34E1FF"/><circle cx="364.1" cy="44.4" r="1.5" fill="#9D6BFF"/><circle cx="368.7" cy="44.4" r="1.5" fill="#34E1FF"/><circle cx="373.3" cy="44.4" r="1.5" fill="#34E1FF"/><circle cx="377.9" cy="44.4" r="1.5" fill="#34E1FF"/><circle cx="382.5" cy="44.4" r="1.5" fill="#9D6BFF"/><circle cx="62.8" cy="49.0" r="1.5" fill="#34E1FF"/><circle cx="67.4" cy="49.0" r="1.5" fill="#34E1FF"/><circle cx="72.0" cy="49.0" r="1.5" fill="#9D6BFF"/><circle cx="76.6" cy="49.0" r="1.5" fill="#34E1FF"/><circle cx="81.2" cy="49.0" r="1.5" fill="#34E1FF"/><circle cx="85.8" cy="49.0" r="1.5" fill="#9D6BFF"/><circle cx="90.4" cy="49.0" r="1.5" fill="#34E1FF"/><circle cx="95.0" cy="49.0" r="1.5" fill="#34E1FF"/><circle cx="99.6" cy="49.0" r="1.5" fill="#34E1FF"/><circle cx="104.2" cy="49.0" r="1.5" fill="#9D6BFF"/><circle cx="108.8" cy="49.0" r="1.5" fill="#34E1FF"/><circle cx="113.4" cy="49.0" r="1.5" fill="#34E1FF"/><circle cx="118.0" cy="49.0" r="1.5" fill="#9D6BFF"/><circle cx="122.6" cy="49.0" r="1.5" fill="#34E1FF"/><circle cx="127.2" cy="49.0" r="1.5" fill="#34E1FF"/><circle cx="131.8" cy="49.0" r="1.5" fill="#9D6BFF"/><circle cx="136.4" cy="49.0" r="1.5" fill="#34E1FF"/><circle cx="210.0" cy="49.0" r="1.5" fill="#34E1FF"/><circle cx="214.6" cy="49.0" r="1.5" fill="#34E1FF"/><circle cx="219.2" cy="49.0" r="1.5" fill="#9D6BFF"/><circle cx="223.8" cy="49.0" r="1.5" fill="#34E1FF"/><circle cx="228.4" cy="49.0" r="1.5" fill="#34E1FF"/><circle cx="233.0" cy="49.0" r="1.5" fill="#9D6BFF"/><circle cx="237.6" cy="49.0" r="1.5" fill="#34E1FF"/><circle cx="242.2" cy="49.0" r="1.5" fill="#34E1FF"/><circle cx="246.8" cy="49.0" r="1.5" fill="#9D6BFF"/><circle cx="251.4" cy="49.0" r="1.5" fill="#34E1FF"/><circle cx="279.0" cy="49.0" r="1.5" fill="#34E1FF"/><circle cx="283.6" cy="49.0" r="1.5" fill="#34E1FF"/><circle cx="288.2" cy="49.0" r="1.5" fill="#9D6BFF"/><circle cx="292.8" cy="49.0" r="1.5" fill="#34E1FF"/><circle cx="297.4" cy="49.0" r="1.5" fill="#34E1FF"/><circle cx="302.0" cy="49.0" r="1.5" fill="#9D6BFF"/><circle cx="306.6" cy="49.0" r="1.5" fill="#34E1FF"/><circle cx="311.2" cy="49.0" r="1.5" fill="#34E1FF"/><circle cx="315.8" cy="49.0" r="1.5" fill="#9D6BFF"/><circle cx="320.4" cy="49.0" r="1.5" fill="#34E1FF"/><circle cx="325.0" cy="49.0" r="1.5" fill="#34E1FF"/><circle cx="329.6" cy="49.0" r="1.5" fill="#34E1FF"/><circle cx="334.2" cy="49.0" r="1.5" fill="#9D6BFF"/><circle cx="338.8" cy="49.0" r="1.5" fill="#34E1FF"/><circle cx="343.4" cy="49.0" r="1.5" fill="#34E1FF"/><circle cx="348.0" cy="49.0" r="1.5" fill="#9D6BFF"/><circle cx="352.6" cy="49.0" r="1.5" fill="#34E1FF"/><circle cx="371.0" cy="49.0" r="1.5" fill="#34E1FF"/><circle cx="375.6" cy="49.0" r="1.5" fill="#9D6BFF"/><circle cx="65.1" cy="53.6" r="1.5" fill="#34E1FF"/><circle cx="69.7" cy="53.6" r="1.5" fill="#34E1FF"/><circle cx="74.3" cy="53.6" r="1.5" fill="#34E1FF"/><circle cx="78.9" cy="53.6" r="1.5" fill="#9D6BFF"/><circle cx="83.5" cy="53.6" r="1.5" fill="#34E1FF"/><circle cx="88.1" cy="53.6" r="1.5" fill="#34E1FF"/><circle cx="92.7" cy="53.6" r="1.5" fill="#9D6BFF"/><circle cx="97.3" cy="53.6" r="1.5" fill="#34E1FF"/><circle cx="101.9" cy="53.6" r="1.5" fill="#34E1FF"/><circle cx="106.5" cy="53.6" r="1.5" fill="#9D6BFF"/><circle cx="111.1" cy="53.6" r="1.5" fill="#34E1FF"/><circle cx="115.7" cy="53.6" r="1.5" fill="#34E1FF"/><circle cx="120.3" cy="53.6" r="1.5" fill="#34E1FF"/><circle cx="124.9" cy="53.6" r="1.5" fill="#9D6BFF"/><circle cx="129.5" cy="53.6" r="1.5" fill="#34E1FF"/><circle cx="207.7" cy="53.6" r="1.5" fill="#34E1FF"/><circle cx="212.3" cy="53.6" r="1.5" fill="#9D6BFF"/><circle cx="226.1" cy="53.6" r="1.5" fill="#34E1FF"/><circle cx="230.7" cy="53.6" r="1.5" fill="#34E1FF"/><circle cx="235.3" cy="53.6" r="1.5" fill="#9D6BFF"/><circle cx="239.9" cy="53.6" r="1.5" fill="#34E1FF"/><circle cx="244.5" cy="53.6" r="1.5" fill="#34E1FF"/><circle cx="249.1" cy="53.6" r="1.5" fill="#34E1FF"/><circle cx="267.5" cy="53.6" r="1.5" fill="#9D6BFF"/><circle cx="272.1" cy="53.6" r="1.5" fill="#34E1FF"/><circle cx="276.7" cy="53.6" r="1.5" fill="#34E1FF"/><circle cx="281.3" cy="53.6" r="1.5" fill="#9D6BFF"/><circle cx="285.9" cy="53.6" r="1.5" fill="#34E1FF"/><circle cx="290.5" cy="53.6" r="1.5" fill="#34E1FF"/><circle cx="295.1" cy="53.6" r="1.5" fill="#9D6BFF"/><circle cx="299.7" cy="53.6" r="1.5" fill="#34E1FF"/><circle cx="304.3" cy="53.6" r="1.5" fill="#34E1FF"/><circle cx="308.9" cy="53.6" r="1.5" fill="#34E1FF"/><circle cx="313.5" cy="53.6" r="1.5" fill="#9D6BFF"/><circle cx="318.1" cy="53.6" r="1.5" fill="#34E1FF"/><circle cx="322.7" cy="53.6" r="1.5" fill="#34E1FF"/><circle cx="327.3" cy="53.6" r="1.5" fill="#9D6BFF"/><circle cx="331.9" cy="53.6" r="1.5" fill="#34E1FF"/><circle cx="336.5" cy="53.6" r="1.5" fill="#34E1FF"/><circle cx="341.1" cy="53.6" r="1.5" fill="#9D6BFF"/><circle cx="345.7" cy="53.6" r="1.5" fill="#34E1FF"/><circle cx="350.3" cy="53.6" r="1.5" fill="#34E1FF"/><circle cx="67.4" cy="58.2" r="1.5" fill="#34E1FF"/><circle cx="72.0" cy="58.2" r="1.5" fill="#9D6BFF"/><circle cx="76.6" cy="58.2" r="1.5" fill="#34E1FF"/><circle cx="81.2" cy="58.2" r="1.5" fill="#34E1FF"/><circle cx="85.8" cy="58.2" r="1.5" fill="#9D6BFF"/><circle cx="90.4" cy="58.2" r="1.5" fill="#34E1FF"/><circle cx="95.0" cy="58.2" r="1.5" fill="#34E1FF"/><circle cx="99.6" cy="58.2" r="1.5" fill="#9D6BFF"/><circle cx="104.2" cy="58.2" r="1.5" fill="#34E1FF"/><circle cx="108.8" cy="58.2" r="1.5" fill="#34E1FF"/><circle cx="113.4" cy="58.2" r="1.5" fill="#34E1FF"/><circle cx="118.0" cy="58.2" r="1.5" fill="#9D6BFF"/><circle cx="122.6" cy="58.2" r="1.5" fill="#34E1FF"/><circle cx="127.2" cy="58.2" r="1.5" fill="#34E1FF"/><circle cx="200.8" cy="58.2" r="1.5" fill="#9D6BFF"/><circle cx="269.8" cy="58.2" r="1.5" fill="#34E1FF"/><circle cx="274.4" cy="58.2" r="1.5" fill="#34E1FF"/><circle cx="279.0" cy="58.2" r="1.5" fill="#9D6BFF"/><circle cx="283.6" cy="58.2" r="1.5" fill="#34E1FF"/><circle cx="288.2" cy="58.2" r="1.5" fill="#34E1FF"/><circle cx="292.8" cy="58.2" r="1.5" fill="#34E1FF"/><circle cx="297.4" cy="58.2" r="1.5" fill="#9D6BFF"/><circle cx="302.0" cy="58.2" r="1.5" fill="#34E1FF"/><circle cx="306.6" cy="58.2" r="1.5" fill="#34E1FF"/><circle cx="311.2" cy="58.2" r="1.5" fill="#9D6BFF"/><circle cx="315.8" cy="58.2" r="1.5" fill="#34E1FF"/><circle cx="320.4" cy="58.2" r="1.5" fill="#34E1FF"/><circle cx="325.0" cy="58.2" r="1.5" fill="#9D6BFF"/><circle cx="329.6" cy="58.2" r="1.5" fill="#34E1FF"/><circle cx="334.2" cy="58.2" r="1.5" fill="#34E1FF"/><circle cx="338.8" cy="58.2" r="1.5" fill="#34E1FF"/><circle cx="343.4" cy="58.2" r="1.5" fill="#9D6BFF"/><circle cx="348.0" cy="58.2" r="1.5" fill="#34E1FF"/><circle cx="371.0" cy="58.2" r="1.5" fill="#34E1FF"/><circle cx="69.7" cy="62.8" r="1.5" fill="#9D6BFF"/><circle cx="74.3" cy="62.8" r="1.5" fill="#34E1FF"/><circle cx="78.9" cy="62.8" r="1.5" fill="#34E1FF"/><circle cx="83.5" cy="62.8" r="1.5" fill="#9D6BFF"/><circle cx="88.1" cy="62.8" r="1.5" fill="#34E1FF"/><circle cx="92.7" cy="62.8" r="1.5" fill="#34E1FF"/><circle cx="97.3" cy="62.8" r="1.5" fill="#34E1FF"/><circle cx="101.9" cy="62.8" r="1.5" fill="#9D6BFF"/><circle cx="106.5" cy="62.8" r="1.5" fill="#34E1FF"/><circle cx="111.1" cy="62.8" r="1.5" fill="#34E1FF"/><circle cx="115.7" cy="62.8" r="1.5" fill="#9D6BFF"/><circle cx="120.3" cy="62.8" r="1.5" fill="#34E1FF"/><circle cx="203.1" cy="62.8" r="1.5" fill="#34E1FF"/><circle cx="207.7" cy="62.8" r="1.5" fill="#9D6BFF"/><circle cx="212.3" cy="62.8" r="1.5" fill="#34E1FF"/><circle cx="216.9" cy="62.8" r="1.5" fill="#34E1FF"/><circle cx="221.5" cy="62.8" r="1.5" fill="#34E1FF"/><circle cx="267.5" cy="62.8" r="1.5" fill="#9D6BFF"/><circle cx="272.1" cy="62.8" r="1.5" fill="#34E1FF"/><circle cx="276.7" cy="62.8" r="1.5" fill="#34E1FF"/><circle cx="281.3" cy="62.8" r="1.5" fill="#9D6BFF"/><circle cx="285.9" cy="62.8" r="1.5" fill="#34E1FF"/><circle cx="290.5" cy="62.8" r="1.5" fill="#34E1FF"/><circle cx="295.1" cy="62.8" r="1.5" fill="#9D6BFF"/><circle cx="299.7" cy="62.8" r="1.5" fill="#34E1FF"/><circle cx="304.3" cy="62.8" r="1.5" fill="#34E1FF"/><circle cx="308.9" cy="62.8" r="1.5" fill="#34E1FF"/><circle cx="313.5" cy="62.8" r="1.5" fill="#9D6BFF"/><circle cx="318.1" cy="62.8" r="1.5" fill="#34E1FF"/><circle cx="322.7" cy="62.8" r="1.5" fill="#34E1FF"/><circle cx="327.3" cy="62.8" r="1.5" fill="#9D6BFF"/><circle cx="331.9" cy="62.8" r="1.5" fill="#34E1FF"/><circle cx="336.5" cy="62.8" r="1.5" fill="#34E1FF"/><circle cx="341.1" cy="62.8" r="1.5" fill="#9D6BFF"/><circle cx="345.7" cy="62.8" r="1.5" fill="#34E1FF"/><circle cx="76.6" cy="67.4" r="1.5" fill="#34E1FF"/><circle cx="81.2" cy="67.4" r="1.5" fill="#34E1FF"/><circle cx="85.8" cy="67.4" r="1.5" fill="#9D6BFF"/><circle cx="90.4" cy="67.4" r="1.5" fill="#34E1FF"/><circle cx="95.0" cy="67.4" r="1.5" fill="#34E1FF"/><circle cx="99.6" cy="67.4" r="1.5" fill="#9D6BFF"/><circle cx="104.2" cy="67.4" r="1.5" fill="#34E1FF"/><circle cx="108.8" cy="67.4" r="1.5" fill="#34E1FF"/><circle cx="113.4" cy="67.4" r="1.5" fill="#9D6BFF"/><circle cx="118.0" cy="67.4" r="1.5" fill="#34E1FF"/><circle cx="191.6" cy="67.4" r="1.5" fill="#34E1FF"/><circle cx="196.2" cy="67.4" r="1.5" fill="#34E1FF"/><circle cx="200.8" cy="67.4" r="1.5" fill="#9D6BFF"/><circle cx="205.4" cy="67.4" r="1.5" fill="#34E1FF"/><circle cx="210.0" cy="67.4" r="1.5" fill="#34E1FF"/><circle cx="214.6" cy="67.4" r="1.5" fill="#9D6BFF"/><circle cx="219.2" cy="67.4" r="1.5" fill="#34E1FF"/><circle cx="223.8" cy="67.4" r="1.5" fill="#34E1FF"/><circle cx="228.4" cy="67.4" r="1.5" fill="#9D6BFF"/><circle cx="233.0" cy="67.4" r="1.5" fill="#34E1FF"/><circle cx="237.6" cy="67.4" r="1.5" fill="#34E1FF"/><circle cx="269.8" cy="67.4" r="1.5" fill="#34E1FF"/><circle cx="274.4" cy="67.4" r="1.5" fill="#9D6BFF"/><circle cx="279.0" cy="67.4" r="1.5" fill="#34E1FF"/><circle cx="283.6" cy="67.4" r="1.5" fill="#34E1FF"/><circle cx="288.2" cy="67.4" r="1.5" fill="#9D6BFF"/><circle cx="292.8" cy="67.4" r="1.5" fill="#34E1FF"/><circle cx="297.4" cy="67.4" r="1.5" fill="#34E1FF"/><circle cx="302.0" cy="67.4" r="1.5" fill="#9D6BFF"/><circle cx="306.6" cy="67.4" r="1.5" fill="#34E1FF"/><circle cx="311.2" cy="67.4" r="1.5" fill="#34E1FF"/><circle cx="315.8" cy="67.4" r="1.5" fill="#34E1FF"/><circle cx="320.4" cy="67.4" r="1.5" fill="#9D6BFF"/><circle cx="325.0" cy="67.4" r="1.5" fill="#34E1FF"/><circle cx="329.6" cy="67.4" r="1.5" fill="#34E1FF"/><circle cx="334.2" cy="67.4" r="1.5" fill="#9D6BFF"/><circle cx="338.8" cy="67.4" r="1.5" fill="#34E1FF"/><circle cx="343.4" cy="67.4" r="1.5" fill="#34E1FF"/><circle cx="78.9" cy="72.0" r="1.5" fill="#9D6BFF"/><circle cx="83.5" cy="72.0" r="1.5" fill="#34E1FF"/><circle cx="88.1" cy="72.0" r="1.5" fill="#34E1FF"/><circle cx="92.7" cy="72.0" r="1.5" fill="#34E1FF"/><circle cx="97.3" cy="72.0" r="1.5" fill="#9D6BFF"/><circle cx="101.9" cy="72.0" r="1.5" fill="#34E1FF"/><circle cx="106.5" cy="72.0" r="1.5" fill="#34E1FF"/><circle cx="111.1" cy="72.0" r="1.5" fill="#9D6BFF"/><circle cx="115.7" cy="72.0" r="1.5" fill="#34E1FF"/><circle cx="189.3" cy="72.0" r="1.5" fill="#34E1FF"/><circle cx="193.9" cy="72.0" r="1.5" fill="#9D6BFF"/><circle cx="198.5" cy="72.0" r="1.5" fill="#34E1FF"/><circle cx="203.1" cy="72.0" r="1.5" fill="#34E1FF"/><circle cx="207.7" cy="72.0" r="1.5" fill="#34E1FF"/><circle cx="212.3" cy="72.0" r="1.5" fill="#9D6BFF"/><circle cx="216.9" cy="72.0" r="1.5" fill="#34E1FF"/><circle cx="221.5" cy="72.0" r="1.5" fill="#34E1FF"/><circle cx="226.1" cy="72.0" r="1.5" fill="#9D6BFF"/><circle cx="230.7" cy="72.0" r="1.5" fill="#34E1FF"/><circle cx="235.3" cy="72.0" r="1.5" fill="#34E1FF"/><circle cx="239.9" cy="72.0" r="1.5" fill="#9D6BFF"/><circle cx="244.5" cy="72.0" r="1.5" fill="#34E1FF"/><circle cx="249.1" cy="72.0" r="1.5" fill="#34E1FF"/><circle cx="272.1" cy="72.0" r="1.5" fill="#34E1FF"/><circle cx="276.7" cy="72.0" r="1.5" fill="#9D6BFF"/><circle cx="281.3" cy="72.0" r="1.5" fill="#34E1FF"/><circle cx="285.9" cy="72.0" r="1.5" fill="#34E1FF"/><circle cx="290.5" cy="72.0" r="1.5" fill="#9D6BFF"/><circle cx="295.1" cy="72.0" r="1.5" fill="#34E1FF"/><circle cx="299.7" cy="72.0" r="1.5" fill="#34E1FF"/><circle cx="304.3" cy="72.0" r="1.5" fill="#9D6BFF"/><circle cx="308.9" cy="72.0" r="1.5" fill="#34E1FF"/><circle cx="313.5" cy="72.0" r="1.5" fill="#34E1FF"/><circle cx="318.1" cy="72.0" r="1.5" fill="#34E1FF"/><circle cx="322.7" cy="72.0" r="1.5" fill="#9D6BFF"/><circle cx="327.3" cy="72.0" r="1.5" fill="#34E1FF"/><circle cx="331.9" cy="72.0" r="1.5" fill="#34E1FF"/><circle cx="336.5" cy="72.0" r="1.5" fill="#9D6BFF"/><circle cx="341.1" cy="72.0" r="1.5" fill="#34E1FF"/><circle cx="85.8" cy="76.6" r="1.5" fill="#34E1FF"/><circle cx="90.4" cy="76.6" r="1.5" fill="#9D6BFF"/><circle cx="95.0" cy="76.6" r="1.5" fill="#34E1FF"/><circle cx="99.6" cy="76.6" r="1.5" fill="#34E1FF"/><circle cx="104.2" cy="76.6" r="1.5" fill="#34E1FF"/><circle cx="108.8" cy="76.6" r="1.5" fill="#9D6BFF"/><circle cx="191.6" cy="76.6" r="1.5" fill="#34E1FF"/><circle cx="196.2" cy="76.6" r="1.5" fill="#34E1FF"/><circle cx="200.8" cy="76.6" r="1.5" fill="#9D6BFF"/><circle cx="205.4" cy="76.6" r="1.5" fill="#34E1FF"/><circle cx="210.0" cy="76.6" r="1.5" fill="#34E1FF"/><circle cx="214.6" cy="76.6" r="1.5" fill="#9D6BFF"/><circle cx="219.2" cy="76.6" r="1.5" fill="#34E1FF"/><circle cx="223.8" cy="76.6" r="1.5" fill="#34E1FF"/><circle cx="228.4" cy="76.6" r="1.5" fill="#34E1FF"/><circle cx="233.0" cy="76.6" r="1.5" fill="#9D6BFF"/><circle cx="237.6" cy="76.6" r="1.5" fill="#34E1FF"/><circle cx="242.2" cy="76.6" r="1.5" fill="#34E1FF"/><circle cx="246.8" cy="76.6" r="1.5" fill="#9D6BFF"/><circle cx="251.4" cy="76.6" r="1.5" fill="#34E1FF"/><circle cx="288.2" cy="76.6" r="1.5" fill="#34E1FF"/><circle cx="292.8" cy="76.6" r="1.5" fill="#9D6BFF"/><circle cx="297.4" cy="76.6" r="1.5" fill="#34E1FF"/><circle cx="302.0" cy="76.6" r="1.5" fill="#34E1FF"/><circle cx="306.6" cy="76.6" r="1.5" fill="#34E1FF"/><circle cx="311.2" cy="76.6" r="1.5" fill="#9D6BFF"/><circle cx="315.8" cy="76.6" r="1.5" fill="#34E1FF"/><circle cx="320.4" cy="76.6" r="1.5" fill="#34E1FF"/><circle cx="325.0" cy="76.6" r="1.5" fill="#9D6BFF"/><circle cx="329.6" cy="76.6" r="1.5" fill="#34E1FF"/><circle cx="334.2" cy="76.6" r="1.5" fill="#34E1FF"/><circle cx="92.7" cy="81.2" r="1.5" fill="#9D6BFF"/><circle cx="97.3" cy="81.2" r="1.5" fill="#34E1FF"/><circle cx="189.3" cy="81.2" r="1.5" fill="#34E1FF"/><circle cx="193.9" cy="81.2" r="1.5" fill="#34E1FF"/><circle cx="198.5" cy="81.2" r="1.5" fill="#9D6BFF"/><circle cx="203.1" cy="81.2" r="1.5" fill="#34E1FF"/><circle cx="207.7" cy="81.2" r="1.5" fill="#34E1FF"/><circle cx="212.3" cy="81.2" r="1.5" fill="#9D6BFF"/><circle cx="216.9" cy="81.2" r="1.5" fill="#34E1FF"/><circle cx="221.5" cy="81.2" r="1.5" fill="#34E1FF"/><circle cx="226.1" cy="81.2" r="1.5" fill="#9D6BFF"/><circle cx="230.7" cy="81.2" r="1.5" fill="#34E1FF"/><circle cx="235.3" cy="81.2" r="1.5" fill="#34E1FF"/><circle cx="239.9" cy="81.2" r="1.5" fill="#34E1FF"/><circle cx="244.5" cy="81.2" r="1.5" fill="#9D6BFF"/><circle cx="249.1" cy="81.2" r="1.5" fill="#34E1FF"/><circle cx="253.7" cy="81.2" r="1.5" fill="#34E1FF"/><circle cx="290.5" cy="81.2" r="1.5" fill="#9D6BFF"/><circle cx="295.1" cy="81.2" r="1.5" fill="#34E1FF"/><circle cx="299.7" cy="81.2" r="1.5" fill="#34E1FF"/><circle cx="304.3" cy="81.2" r="1.5" fill="#9D6BFF"/><circle cx="313.5" cy="81.2" r="1.5" fill="#34E1FF"/><circle cx="318.1" cy="81.2" r="1.5" fill="#34E1FF"/><circle cx="322.7" cy="81.2" r="1.5" fill="#34E1FF"/><circle cx="327.3" cy="81.2" r="1.5" fill="#9D6BFF"/><circle cx="331.9" cy="81.2" r="1.5" fill="#34E1FF"/><circle cx="104.2" cy="85.8" r="1.5" fill="#34E1FF"/><circle cx="108.8" cy="85.8" r="1.5" fill="#9D6BFF"/><circle cx="196.2" cy="85.8" r="1.5" fill="#34E1FF"/><circle cx="200.8" cy="85.8" r="1.5" fill="#34E1FF"/><circle cx="205.4" cy="85.8" r="1.5" fill="#9D6BFF"/><circle cx="210.0" cy="85.8" r="1.5" fill="#34E1FF"/><circle cx="214.6" cy="85.8" r="1.5" fill="#34E1FF"/><circle cx="219.2" cy="85.8" r="1.5" fill="#34E1FF"/><circle cx="223.8" cy="85.8" r="1.5" fill="#9D6BFF"/><circle cx="228.4" cy="85.8" r="1.5" fill="#34E1FF"/><circle cx="233.0" cy="85.8" r="1.5" fill="#34E1FF"/><circle cx="237.6" cy="85.8" r="1.5" fill="#9D6BFF"/><circle cx="242.2" cy="85.8" r="1.5" fill="#34E1FF"/><circle cx="246.8" cy="85.8" r="1.5" fill="#34E1FF"/><circle cx="251.4" cy="85.8" r="1.5" fill="#9D6BFF"/><circle cx="297.4" cy="85.8" r="1.5" fill="#34E1FF"/><circle cx="302.0" cy="85.8" r="1.5" fill="#34E1FF"/><circle cx="320.4" cy="85.8" r="1.5" fill="#34E1FF"/><circle cx="325.0" cy="85.8" r="1.5" fill="#9D6BFF"/><circle cx="329.6" cy="85.8" r="1.5" fill="#34E1FF"/><circle cx="106.5" cy="90.4" r="1.5" fill="#34E1FF"/><circle cx="111.1" cy="90.4" r="1.5" fill="#9D6BFF"/><circle cx="198.5" cy="90.4" r="1.5" fill="#34E1FF"/><circle cx="203.1" cy="90.4" r="1.5" fill="#34E1FF"/><circle cx="207.7" cy="90.4" r="1.5" fill="#9D6BFF"/><circle cx="212.3" cy="90.4" r="1.5" fill="#34E1FF"/><circle cx="216.9" cy="90.4" r="1.5" fill="#34E1FF"/><circle cx="221.5" cy="90.4" r="1.5" fill="#34E1FF"/><circle cx="226.1" cy="90.4" r="1.5" fill="#9D6BFF"/><circle cx="230.7" cy="90.4" r="1.5" fill="#34E1FF"/><circle cx="235.3" cy="90.4" r="1.5" fill="#34E1FF"/><circle cx="239.9" cy="90.4" r="1.5" fill="#9D6BFF"/><circle cx="244.5" cy="90.4" r="1.5" fill="#34E1FF"/><circle cx="249.1" cy="90.4" r="1.5" fill="#34E1FF"/><circle cx="253.7" cy="90.4" r="1.5" fill="#9D6BFF"/><circle cx="258.3" cy="90.4" r="1.5" fill="#34E1FF"/><circle cx="262.9" cy="90.4" r="1.5" fill="#34E1FF"/><circle cx="299.7" cy="90.4" r="1.5" fill="#34E1FF"/><circle cx="322.7" cy="90.4" r="1.5" fill="#9D6BFF"/><circle cx="327.3" cy="90.4" r="1.5" fill="#34E1FF"/><circle cx="331.9" cy="90.4" r="1.5" fill="#34E1FF"/><circle cx="118.0" cy="95.0" r="1.5" fill="#9D6BFF"/><circle cx="122.6" cy="95.0" r="1.5" fill="#34E1FF"/><circle cx="127.2" cy="95.0" r="1.5" fill="#34E1FF"/><circle cx="131.8" cy="95.0" r="1.5" fill="#9D6BFF"/><circle cx="200.8" cy="95.0" r="1.5" fill="#34E1FF"/><circle cx="205.4" cy="95.0" r="1.5" fill="#34E1FF"/><circle cx="210.0" cy="95.0" r="1.5" fill="#34E1FF"/><circle cx="214.6" cy="95.0" r="1.5" fill="#9D6BFF"/><circle cx="219.2" cy="95.0" r="1.5" fill="#34E1FF"/><circle cx="223.8" cy="95.0" r="1.5" fill="#34E1FF"/><circle cx="228.4" cy="95.0" r="1.5" fill="#9D6BFF"/><circle cx="233.0" cy="95.0" r="1.5" fill="#34E1FF"/><circle cx="237.6" cy="95.0" r="1.5" fill="#34E1FF"/><circle cx="242.2" cy="95.0" r="1.5" fill="#9D6BFF"/><circle cx="246.8" cy="95.0" r="1.5" fill="#34E1FF"/><circle cx="251.4" cy="95.0" r="1.5" fill="#34E1FF"/><circle cx="256.0" cy="95.0" r="1.5" fill="#34E1FF"/><circle cx="260.6" cy="95.0" r="1.5" fill="#9D6BFF"/><circle cx="265.2" cy="95.0" r="1.5" fill="#34E1FF"/><circle cx="325.0" cy="95.0" r="1.5" fill="#34E1FF"/><circle cx="120.3" cy="99.6" r="1.5" fill="#9D6BFF"/><circle cx="124.9" cy="99.6" r="1.5" fill="#34E1FF"/><circle cx="129.5" cy="99.6" r="1.5" fill="#34E1FF"/><circle cx="134.1" cy="99.6" r="1.5" fill="#9D6BFF"/><circle cx="138.7" cy="99.6" r="1.5" fill="#34E1FF"/><circle cx="212.3" cy="99.6" r="1.5" fill="#34E1FF"/><circle cx="216.9" cy="99.6" r="1.5" fill="#34E1FF"/><circle cx="221.5" cy="99.6" r="1.5" fill="#9D6BFF"/><circle cx="226.1" cy="99.6" r="1.5" fill="#34E1FF"/><circle cx="230.7" cy="99.6" r="1.5" fill="#34E1FF"/><circle cx="235.3" cy="99.6" r="1.5" fill="#9D6BFF"/><circle cx="239.9" cy="99.6" r="1.5" fill="#34E1FF"/><circle cx="244.5" cy="99.6" r="1.5" fill="#34E1FF"/><circle cx="249.1" cy="99.6" r="1.5" fill="#9D6BFF"/><circle cx="253.7" cy="99.6" r="1.5" fill="#34E1FF"/><circle cx="258.3" cy="99.6" r="1.5" fill="#34E1FF"/><circle cx="262.9" cy="99.6" r="1.5" fill="#34E1FF"/><circle cx="118.0" cy="104.2" r="1.5" fill="#9D6BFF"/><circle cx="122.6" cy="104.2" r="1.5" fill="#34E1FF"/><circle cx="127.2" cy="104.2" r="1.5" fill="#34E1FF"/><circle cx="131.8" cy="104.2" r="1.5" fill="#9D6BFF"/><circle cx="136.4" cy="104.2" r="1.5" fill="#34E1FF"/><circle cx="141.0" cy="104.2" r="1.5" fill="#34E1FF"/><circle cx="145.6" cy="104.2" r="1.5" fill="#9D6BFF"/><circle cx="150.2" cy="104.2" r="1.5" fill="#34E1FF"/><circle cx="219.2" cy="104.2" r="1.5" fill="#34E1FF"/><circle cx="223.8" cy="104.2" r="1.5" fill="#34E1FF"/><circle cx="228.4" cy="104.2" r="1.5" fill="#9D6BFF"/><circle cx="233.0" cy="104.2" r="1.5" fill="#34E1FF"/><circle cx="237.6" cy="104.2" r="1.5" fill="#34E1FF"/><circle cx="242.2" cy="104.2" r="1.5" fill="#9D6BFF"/><circle cx="246.8" cy="104.2" r="1.5" fill="#34E1FF"/><circle cx="251.4" cy="104.2" r="1.5" fill="#34E1FF"/><circle cx="256.0" cy="104.2" r="1.5" fill="#9D6BFF"/><circle cx="260.6" cy="104.2" r="1.5" fill="#34E1FF"/><circle cx="115.7" cy="108.8" r="1.5" fill="#34E1FF"/><circle cx="120.3" cy="108.8" r="1.5" fill="#34E1FF"/><circle cx="124.9" cy="108.8" r="1.5" fill="#9D6BFF"/><circle cx="129.5" cy="108.8" r="1.5" fill="#34E1FF"/><circle cx="134.1" cy="108.8" r="1.5" fill="#34E1FF"/><circle cx="138.7" cy="108.8" r="1.5" fill="#9D6BFF"/><circle cx="143.3" cy="108.8" r="1.5" fill="#34E1FF"/><circle cx="147.9" cy="108.8" r="1.5" fill="#34E1FF"/><circle cx="152.5" cy="108.8" r="1.5" fill="#9D6BFF"/><circle cx="157.1" cy="108.8" r="1.5" fill="#34E1FF"/><circle cx="161.7" cy="108.8" r="1.5" fill="#34E1FF"/><circle cx="221.5" cy="108.8" r="1.5" fill="#34E1FF"/><circle cx="226.1" cy="108.8" r="1.5" fill="#9D6BFF"/><circle cx="230.7" cy="108.8" r="1.5" fill="#34E1FF"/><circle cx="235.3" cy="108.8" r="1.5" fill="#34E1FF"/><circle cx="239.9" cy="108.8" r="1.5" fill="#9D6BFF"/><circle cx="244.5" cy="108.8" r="1.5" fill="#34E1FF"/><circle cx="249.1" cy="108.8" r="1.5" fill="#34E1FF"/><circle cx="253.7" cy="108.8" r="1.5" fill="#9D6BFF"/><circle cx="258.3" cy="108.8" r="1.5" fill="#34E1FF"/><circle cx="118.0" cy="113.4" r="1.5" fill="#34E1FF"/><circle cx="122.6" cy="113.4" r="1.5" fill="#34E1FF"/><circle cx="127.2" cy="113.4" r="1.5" fill="#9D6BFF"/><circle cx="131.8" cy="113.4" r="1.5" fill="#34E1FF"/><circle cx="136.4" cy="113.4" r="1.5" fill="#34E1FF"/><circle cx="141.0" cy="113.4" r="1.5" fill="#9D6BFF"/><circle cx="145.6" cy="113.4" r="1.5" fill="#34E1FF"/><circle cx="150.2" cy="113.4" r="1.5" fill="#34E1FF"/><circle cx="154.8" cy="113.4" r="1.5" fill="#9D6BFF"/><circle cx="159.4" cy="113.4" r="1.5" fill="#34E1FF"/><circle cx="164.0" cy="113.4" r="1.5" fill="#34E1FF"/><circle cx="223.8" cy="113.4" r="1.5" fill="#34E1FF"/><circle cx="228.4" cy="113.4" r="1.5" fill="#9D6BFF"/><circle cx="233.0" cy="113.4" r="1.5" fill="#34E1FF"/><circle cx="237.6" cy="113.4" r="1.5" fill="#34E1FF"/><circle cx="242.2" cy="113.4" r="1.5" fill="#9D6BFF"/><circle cx="246.8" cy="113.4" r="1.5" fill="#34E1FF"/><circle cx="251.4" cy="113.4" r="1.5" fill="#34E1FF"/><circle cx="256.0" cy="113.4" r="1.5" fill="#9D6BFF"/><circle cx="120.3" cy="118.0" r="1.5" fill="#34E1FF"/><circle cx="124.9" cy="118.0" r="1.5" fill="#34E1FF"/><circle cx="129.5" cy="118.0" r="1.5" fill="#34E1FF"/><circle cx="134.1" cy="118.0" r="1.5" fill="#9D6BFF"/><circle cx="138.7" cy="118.0" r="1.5" fill="#34E1FF"/><circle cx="143.3" cy="118.0" r="1.5" fill="#34E1FF"/><circle cx="147.9" cy="118.0" r="1.5" fill="#9D6BFF"/><circle cx="152.5" cy="118.0" r="1.5" fill="#34E1FF"/><circle cx="157.1" cy="118.0" r="1.5" fill="#34E1FF"/><circle cx="161.7" cy="118.0" r="1.5" fill="#9D6BFF"/><circle cx="221.5" cy="118.0" r="1.5" fill="#34E1FF"/><circle cx="226.1" cy="118.0" r="1.5" fill="#34E1FF"/><circle cx="230.7" cy="118.0" r="1.5" fill="#34E1FF"/><circle cx="235.3" cy="118.0" r="1.5" fill="#9D6BFF"/><circle cx="239.9" cy="118.0" r="1.5" fill="#34E1FF"/><circle cx="244.5" cy="118.0" r="1.5" fill="#34E1FF"/><circle cx="249.1" cy="118.0" r="1.5" fill="#9D6BFF"/><circle cx="253.7" cy="118.0" r="1.5" fill="#34E1FF"/><circle cx="359.5" cy="118.0" r="1.5" fill="#34E1FF"/><circle cx="364.1" cy="118.0" r="1.5" fill="#9D6BFF"/><circle cx="368.7" cy="118.0" r="1.5" fill="#34E1FF"/><circle cx="122.6" cy="122.6" r="1.5" fill="#34E1FF"/><circle cx="127.2" cy="122.6" r="1.5" fill="#34E1FF"/><circle cx="131.8" cy="122.6" r="1.5" fill="#9D6BFF"/><circle cx="136.4" cy="122.6" r="1.5" fill="#34E1FF"/><circle cx="141.0" cy="122.6" r="1.5" fill="#34E1FF"/><circle cx="145.6" cy="122.6" r="1.5" fill="#9D6BFF"/><circle cx="150.2" cy="122.6" r="1.5" fill="#34E1FF"/><circle cx="154.8" cy="122.6" r="1.5" fill="#34E1FF"/><circle cx="159.4" cy="122.6" r="1.5" fill="#9D6BFF"/><circle cx="164.0" cy="122.6" r="1.5" fill="#34E1FF"/><circle cx="223.8" cy="122.6" r="1.5" fill="#34E1FF"/><circle cx="228.4" cy="122.6" r="1.5" fill="#34E1FF"/><circle cx="233.0" cy="122.6" r="1.5" fill="#9D6BFF"/><circle cx="237.6" cy="122.6" r="1.5" fill="#34E1FF"/><circle cx="242.2" cy="122.6" r="1.5" fill="#34E1FF"/><circle cx="246.8" cy="122.6" r="1.5" fill="#9D6BFF"/><circle cx="251.4" cy="122.6" r="1.5" fill="#34E1FF"/><circle cx="260.6" cy="122.6" r="1.5" fill="#34E1FF"/><circle cx="265.2" cy="122.6" r="1.5" fill="#9D6BFF"/><circle cx="352.6" cy="122.6" r="1.5" fill="#34E1FF"/><circle cx="357.2" cy="122.6" r="1.5" fill="#34E1FF"/><circle cx="361.8" cy="122.6" r="1.5" fill="#34E1FF"/><circle cx="366.4" cy="122.6" r="1.5" fill="#9D6BFF"/><circle cx="371.0" cy="122.6" r="1.5" fill="#34E1FF"/><circle cx="124.9" cy="127.2" r="1.5" fill="#34E1FF"/><circle cx="129.5" cy="127.2" r="1.5" fill="#9D6BFF"/><circle cx="134.1" cy="127.2" r="1.5" fill="#34E1FF"/><circle cx="138.7" cy="127.2" r="1.5" fill="#34E1FF"/><circle cx="143.3" cy="127.2" r="1.5" fill="#9D6BFF"/><circle cx="147.9" cy="127.2" r="1.5" fill="#34E1FF"/><circle cx="152.5" cy="127.2" r="1.5" fill="#34E1FF"/><circle cx="157.1" cy="127.2" r="1.5" fill="#34E1FF"/><circle cx="161.7" cy="127.2" r="1.5" fill="#9D6BFF"/><circle cx="226.1" cy="127.2" r="1.5" fill="#34E1FF"/><circle cx="230.7" cy="127.2" r="1.5" fill="#34E1FF"/><circle cx="235.3" cy="127.2" r="1.5" fill="#9D6BFF"/><circle cx="239.9" cy="127.2" r="1.5" fill="#34E1FF"/><circle cx="244.5" cy="127.2" r="1.5" fill="#34E1FF"/><circle cx="249.1" cy="127.2" r="1.5" fill="#9D6BFF"/><circle cx="262.9" cy="127.2" r="1.5" fill="#34E1FF"/><circle cx="345.7" cy="127.2" r="1.5" fill="#34E1FF"/><circle cx="350.3" cy="127.2" r="1.5" fill="#34E1FF"/><circle cx="354.9" cy="127.2" r="1.5" fill="#9D6BFF"/><circle cx="359.5" cy="127.2" r="1.5" fill="#34E1FF"/><circle cx="364.1" cy="127.2" r="1.5" fill="#34E1FF"/><circle cx="368.7" cy="127.2" r="1.5" fill="#9D6BFF"/><circle cx="373.3" cy="127.2" r="1.5" fill="#34E1FF"/><circle cx="377.9" cy="127.2" r="1.5" fill="#34E1FF"/><circle cx="127.2" cy="131.8" r="1.5" fill="#9D6BFF"/><circle cx="131.8" cy="131.8" r="1.5" fill="#34E1FF"/><circle cx="136.4" cy="131.8" r="1.5" fill="#34E1FF"/><circle cx="141.0" cy="131.8" r="1.5" fill="#34E1FF"/><circle cx="145.6" cy="131.8" r="1.5" fill="#9D6BFF"/><circle cx="150.2" cy="131.8" r="1.5" fill="#34E1FF"/><circle cx="154.8" cy="131.8" r="1.5" fill="#34E1FF"/><circle cx="159.4" cy="131.8" r="1.5" fill="#9D6BFF"/><circle cx="223.8" cy="131.8" r="1.5" fill="#34E1FF"/><circle cx="228.4" cy="131.8" r="1.5" fill="#34E1FF"/><circle cx="233.0" cy="131.8" r="1.5" fill="#9D6BFF"/><circle cx="237.6" cy="131.8" r="1.5" fill="#34E1FF"/><circle cx="242.2" cy="131.8" r="1.5" fill="#34E1FF"/><circle cx="246.8" cy="131.8" r="1.5" fill="#34E1FF"/><circle cx="343.4" cy="131.8" r="1.5" fill="#9D6BFF"/><circle cx="348.0" cy="131.8" r="1.5" fill="#34E1FF"/><circle cx="352.6" cy="131.8" r="1.5" fill="#34E1FF"/><circle cx="357.2" cy="131.8" r="1.5" fill="#9D6BFF"/><circle cx="361.8" cy="131.8" r="1.5" fill="#34E1FF"/><circle cx="366.4" cy="131.8" r="1.5" fill="#34E1FF"/><circle cx="371.0" cy="131.8" r="1.5" fill="#9D6BFF"/><circle cx="375.6" cy="131.8" r="1.5" fill="#34E1FF"/><circle cx="380.2" cy="131.8" r="1.5" fill="#34E1FF"/><circle cx="124.9" cy="136.4" r="1.5" fill="#34E1FF"/><circle cx="129.5" cy="136.4" r="1.5" fill="#9D6BFF"/><circle cx="134.1" cy="136.4" r="1.5" fill="#34E1FF"/><circle cx="138.7" cy="136.4" r="1.5" fill="#34E1FF"/><circle cx="143.3" cy="136.4" r="1.5" fill="#9D6BFF"/><circle cx="147.9" cy="136.4" r="1.5" fill="#34E1FF"/><circle cx="152.5" cy="136.4" r="1.5" fill="#34E1FF"/><circle cx="226.1" cy="136.4" r="1.5" fill="#9D6BFF"/><circle cx="230.7" cy="136.4" r="1.5" fill="#34E1FF"/><circle cx="235.3" cy="136.4" r="1.5" fill="#34E1FF"/><circle cx="239.9" cy="136.4" r="1.5" fill="#34E1FF"/><circle cx="341.1" cy="136.4" r="1.5" fill="#9D6BFF"/><circle cx="345.7" cy="136.4" r="1.5" fill="#34E1FF"/><circle cx="350.3" cy="136.4" r="1.5" fill="#34E1FF"/><circle cx="354.9" cy="136.4" r="1.5" fill="#9D6BFF"/><circle cx="359.5" cy="136.4" r="1.5" fill="#34E1FF"/><circle cx="364.1" cy="136.4" r="1.5" fill="#34E1FF"/><circle cx="368.7" cy="136.4" r="1.5" fill="#9D6BFF"/><circle cx="373.3" cy="136.4" r="1.5" fill="#34E1FF"/><circle cx="377.9" cy="136.4" r="1.5" fill="#34E1FF"/><circle cx="127.2" cy="141.0" r="1.5" fill="#34E1FF"/><circle cx="131.8" cy="141.0" r="1.5" fill="#9D6BFF"/><circle cx="136.4" cy="141.0" r="1.5" fill="#34E1FF"/><circle cx="141.0" cy="141.0" r="1.5" fill="#34E1FF"/><circle cx="145.6" cy="141.0" r="1.5" fill="#9D6BFF"/><circle cx="150.2" cy="141.0" r="1.5" fill="#34E1FF"/><circle cx="228.4" cy="141.0" r="1.5" fill="#34E1FF"/><circle cx="233.0" cy="141.0" r="1.5" fill="#9D6BFF"/><circle cx="237.6" cy="141.0" r="1.5" fill="#34E1FF"/><circle cx="348.0" cy="141.0" r="1.5" fill="#34E1FF"/><circle cx="352.6" cy="141.0" r="1.5" fill="#34E1FF"/><circle cx="357.2" cy="141.0" r="1.5" fill="#9D6BFF"/><circle cx="361.8" cy="141.0" r="1.5" fill="#34E1FF"/><circle cx="366.4" cy="141.0" r="1.5" fill="#34E1FF"/><circle cx="371.0" cy="141.0" r="1.5" fill="#9D6BFF"/><circle cx="375.6" cy="141.0" r="1.5" fill="#34E1FF"/><circle cx="380.2" cy="141.0" r="1.5" fill="#34E1FF"/><circle cx="129.5" cy="145.6" r="1.5" fill="#9D6BFF"/><circle cx="134.1" cy="145.6" r="1.5" fill="#34E1FF"/><circle cx="138.7" cy="145.6" r="1.5" fill="#34E1FF"/><circle cx="143.3" cy="145.6" r="1.5" fill="#34E1FF"/><circle cx="364.1" cy="145.6" r="1.5" fill="#9D6BFF"/><circle cx="368.7" cy="145.6" r="1.5" fill="#34E1FF"/><circle cx="373.3" cy="145.6" r="1.5" fill="#34E1FF"/><circle cx="127.2" cy="150.2" r="1.5" fill="#9D6BFF"/><circle cx="131.8" cy="150.2" r="1.5" fill="#34E1FF"/><circle cx="136.4" cy="150.2" r="1.5" fill="#34E1FF"/><circle cx="141.0" cy="150.2" r="1.5" fill="#9D6BFF"/><circle cx="124.9" cy="154.8" r="1.5" fill="#34E1FF"/><circle cx="129.5" cy="154.8" r="1.5" fill="#34E1FF"/><circle cx="134.1" cy="154.8" r="1.5" fill="#34E1FF"/><circle cx="405.5" cy="154.8" r="1.5" fill="#9D6BFF"/><circle cx="127.2" cy="159.4" r="1.5" fill="#34E1FF"/><circle cx="131.8" cy="159.4" r="1.5" fill="#34E1FF"/><circle cx="124.9" cy="164.0" r="1.5" fill="#9D6BFF"/><circle cx="129.5" cy="164.0" r="1.5" fill="#34E1FF"/></svg>